<svg viewBox="0 0 513 513" fill="none" xmlns="http://www.w3.org/2000/svg">
  <path fill-rule="evenodd" clip-rule="evenodd" d="M85 0C38.0558 0 0 38.0558 0 85V428C0 474.944 38.0558 513 85 513H428C474.944 513 513 474.944 513 428V85C513 38.0558 474.944 0 428 0H85ZM376.157 77.3344C389.044 64.4471 409.938 64.4471 422.826 77.3344L428.629 83.1379C441.516 96.0252 441.516 116.92 428.629 129.807L122.807 435.629C109.92 448.516 89.0252 448.516 76.1379 435.629L70.3344 429.826C57.4471 416.938 57.4471 396.044 70.3344 383.157L209.914 243.577L96.1456 129.808C83.2583 116.921 83.2583 96.0261 96.1456 83.1388L101.949 77.3353C114.836 64.448 135.731 64.448 148.618 77.3353L262.387 191.104L376.157 77.3344ZM322.412 251.605C323.111 252.146 323.733 252.609 324.283 253.001L454.44 383.158C467.328 396.045 467.328 416.939 454.44 429.827L448.637 435.63C435.75 448.517 414.855 448.517 401.968 435.63L295.975 329.637C295.846 329.425 295.66 329.156 295.412 328.825C288.392 319.465 307.832 240.324 322.412 251.605Z" fill="#004D6F" />
</svg>
  