<svg viewBox="0 0 336 98" fill="none" xmlns="http://www.w3.org/2000/svg">
  <path fill-rule="evenodd" clip-rule="evenodd" d="M0 16.2378C0 7.26992 7.26992 0 16.2378 0H81.7622C90.7301 0 98 7.26992 98 16.2378V81.7622C98 90.7301 90.7301 98 81.7622 98H16.2378C7.26992 98 0 90.7301 0 81.7622V16.2378ZM71.8584 14.7735C74.3203 12.3116 78.3118 12.3116 80.7737 14.7735L81.8824 15.8821C84.3443 18.344 84.3443 22.3355 81.8824 24.7974L23.4602 83.2196C20.9983 85.6815 17.0068 85.6815 14.5449 83.2196L13.4362 82.111C10.9743 79.6491 10.9743 75.6575 13.4362 73.1956L40.1006 46.5312L18.367 24.7976C15.9051 22.3357 15.9051 18.3442 18.367 15.8823L19.4757 14.7736C21.9376 12.3117 25.9291 12.3117 28.391 14.7736L50.1246 36.5072L71.8584 14.7735ZM61.5913 48.0649C61.7249 48.1682 61.8437 48.2567 61.9489 48.3315L86.8132 73.1958C89.2751 75.6577 89.2751 79.6492 86.8132 82.1111L85.7045 83.2198C83.2426 85.6817 79.2511 85.6817 76.7892 83.2198L56.541 62.9716C56.5165 62.9311 56.4809 62.8796 56.4335 62.8164C55.0924 61.0284 58.8061 45.9099 61.5913 48.0649Z" fill="#004D6F"/>
  <path d="M108.158 41.5898H117.881V47.3789C119.143 45.3997 120.85 43.7917 123.002 42.5547C125.154 41.3177 127.542 40.6992 130.164 40.6992C134.741 40.6992 138.625 42.4928 141.816 46.0801C145.008 49.6673 146.604 54.6647 146.604 61.0723C146.604 67.653 144.995 72.7741 141.779 76.4355C138.563 80.0723 134.667 81.8906 130.09 81.8906C127.913 81.8906 125.934 81.4577 124.152 80.5918C122.396 79.7259 120.54 78.2415 118.586 76.1387V95.9922H108.158V41.5898ZM118.475 60.627C118.475 65.0553 119.353 68.3333 121.109 70.4609C122.866 72.5638 125.006 73.6152 127.529 73.6152C129.954 73.6152 131.97 72.6504 133.578 70.7207C135.186 68.7663 135.99 65.5749 135.99 61.1465C135.99 57.015 135.161 53.9473 133.504 51.9434C131.846 49.9395 129.793 48.9375 127.344 48.9375C124.796 48.9375 122.68 49.9271 120.998 51.9062C119.316 53.8607 118.475 56.7676 118.475 60.627ZM177.738 68.457L188.129 70.2012C186.793 74.0111 184.678 76.918 181.783 78.9219C178.913 80.901 175.314 81.8906 170.984 81.8906C164.132 81.8906 159.06 79.6517 155.77 75.1738C153.172 71.5866 151.873 67.0592 151.873 61.5918C151.873 55.0605 153.58 49.9518 156.994 46.2656C160.408 42.5547 164.725 40.6992 169.945 40.6992C175.809 40.6992 180.435 42.6413 183.824 46.5254C187.214 50.3848 188.834 56.3099 188.686 64.3008H162.561C162.635 67.3932 163.476 69.8053 165.084 71.5371C166.692 73.2441 168.696 74.0977 171.096 74.0977C172.729 74.0977 174.102 73.6523 175.215 72.7617C176.328 71.8711 177.169 70.4362 177.738 68.457ZM178.332 57.918C178.258 54.8997 177.479 52.6113 175.994 51.0527C174.51 49.4694 172.704 48.6777 170.576 48.6777C168.3 48.6777 166.42 49.5065 164.936 51.1641C163.451 52.8216 162.721 55.0729 162.746 57.918H178.332ZM257.598 41.5898V49.9023H250.473V65.7852C250.473 69.0013 250.535 70.8815 250.658 71.4258C250.807 71.9453 251.116 72.3783 251.586 72.7246C252.081 73.071 252.674 73.2441 253.367 73.2441C254.332 73.2441 255.73 72.9102 257.561 72.2422L258.451 80.332C256.027 81.3711 253.281 81.8906 250.213 81.8906C248.333 81.8906 246.638 81.5814 245.129 80.9629C243.62 80.3197 242.507 79.5033 241.789 78.5137C241.096 77.4993 240.614 76.1387 240.342 74.4316C240.119 73.2194 240.008 70.7702 240.008 67.084V49.9023H235.221V41.5898H240.008V33.7598L250.473 27.6738V41.5898H257.598ZM274.816 81H264.389V41.5898H274.074V47.1934C275.732 44.5462 277.216 42.8021 278.527 41.9609C279.863 41.1198 281.372 40.6992 283.055 40.6992C285.43 40.6992 287.718 41.3548 289.92 42.666L286.691 51.7578C284.935 50.6198 283.302 50.0508 281.793 50.0508C280.333 50.0508 279.096 50.459 278.082 51.2754C277.068 52.0671 276.264 53.5143 275.67 55.6172C275.101 57.7201 274.816 62.1237 274.816 68.8281V81ZM292.035 60.7383C292.035 57.2747 292.889 53.9225 294.596 50.6816C296.303 47.4408 298.715 44.9668 301.832 43.2598C304.974 41.5527 308.475 40.6992 312.334 40.6992C318.296 40.6992 323.182 42.6413 326.992 46.5254C330.802 50.3848 332.707 55.2708 332.707 61.1836C332.707 67.1458 330.777 72.0938 326.918 76.0273C323.083 79.9362 318.247 81.8906 312.408 81.8906C308.796 81.8906 305.345 81.0742 302.055 79.4414C298.789 77.8086 296.303 75.4212 294.596 72.2793C292.889 69.1126 292.035 65.2656 292.035 60.7383ZM302.723 61.2949C302.723 65.2038 303.65 68.1973 305.506 70.2754C307.361 72.3535 309.65 73.3926 312.371 73.3926C315.092 73.3926 317.368 72.3535 319.199 70.2754C321.055 68.1973 321.982 65.179 321.982 61.2207C321.982 57.3613 321.055 54.3926 319.199 52.3145C317.368 50.2363 315.092 49.1973 312.371 49.1973C309.65 49.1973 307.361 50.2363 305.506 52.3145C303.65 54.3926 302.723 57.3861 302.723 61.2949Z" fill="#004D6F"/>
  <path d="M200 82.5714V60.7143V53.4286V34L225 43.7143V80.1429L217.5 77.7143V48.5714L207.5 46.1429V85L200 82.5714Z" fill="#004D6F"/>
  <path d="M206.4 8.38536L180 29.3488L184.4 33.5414L204.2 18.8671L213 31.4451L232.8 12.578L239.4 16.7707V0L221.8 4.19268L228.4 8.38536L215.2 20.9634L206.4 8.38536Z" fill="#004D6F"/>
  </svg>
  