<svg  viewBox="0 0 327 102" fill="none" xmlns="http://www.w3.org/2000/svg">
  
  <path d="M191 82.5714V60.7143V53.4286V34L216 43.7143V80.1429L208.5 77.7143V48.5714L198.5 46.1429V85L191 82.5714Z" fill="#ffffff"/>
  <path d="M197.4 8.38536L171 29.3488L175.4 33.5414L195.2 18.8671L204 31.4451L223.8 12.578L230.4 16.7707V0L212.8 4.19268L219.4 8.38536L206.2 20.9634L197.4 8.38536Z" fill="#ffffff"/>
  <path d="M99.1582 41.5898H108.881V47.3789C110.143 45.3997 111.85 43.7917 114.002 42.5547C116.154 41.3177 118.542 40.6992 121.164 40.6992C125.741 40.6992 129.625 42.4928 132.816 46.0801C136.008 49.6673 137.604 54.6647 137.604 61.0723C137.604 67.653 135.995 72.7741 132.779 76.4355C129.563 80.0723 125.667 81.8906 121.09 81.8906C118.913 81.8906 116.934 81.4577 115.152 80.5918C113.396 79.7259 111.54 78.2415 109.586 76.1387V95.9922H99.1582V41.5898ZM109.475 60.627C109.475 65.0553 110.353 68.3333 112.109 70.4609C113.866 72.5638 116.006 73.6152 118.529 73.6152C120.954 73.6152 122.97 72.6504 124.578 70.7207C126.186 68.7663 126.99 65.5749 126.99 61.1465C126.99 57.015 126.161 53.9473 124.504 51.9434C122.846 49.9395 120.793 48.9375 118.344 48.9375C115.796 48.9375 113.68 49.9271 111.998 51.9062C110.316 53.8607 109.475 56.7676 109.475 60.627ZM168.738 68.457L179.129 70.2012C177.793 74.0111 175.678 76.918 172.783 78.9219C169.913 80.901 166.314 81.8906 161.984 81.8906C155.132 81.8906 150.06 79.6517 146.77 75.1738C144.172 71.5866 142.873 67.0592 142.873 61.5918C142.873 55.0605 144.58 49.9518 147.994 46.2656C151.408 42.5547 155.725 40.6992 160.945 40.6992C166.809 40.6992 171.435 42.6413 174.824 46.5254C178.214 50.3848 179.834 56.3099 179.686 64.3008H153.561C153.635 67.3932 154.476 69.8053 156.084 71.5371C157.692 73.2441 159.696 74.0977 162.096 74.0977C163.729 74.0977 165.102 73.6523 166.215 72.7617C167.328 71.8711 168.169 70.4362 168.738 68.457ZM169.332 57.918C169.258 54.8997 168.479 52.6113 166.994 51.0527C165.51 49.4694 163.704 48.6777 161.576 48.6777C159.3 48.6777 157.42 49.5065 155.936 51.1641C154.451 52.8216 153.721 55.0729 153.746 57.918H169.332ZM248.598 41.5898V49.9023H241.473V65.7852C241.473 69.0013 241.535 70.8815 241.658 71.4258C241.807 71.9453 242.116 72.3783 242.586 72.7246C243.081 73.071 243.674 73.2441 244.367 73.2441C245.332 73.2441 246.73 72.9102 248.561 72.2422L249.451 80.332C247.027 81.3711 244.281 81.8906 241.213 81.8906C239.333 81.8906 237.638 81.5814 236.129 80.9629C234.62 80.3197 233.507 79.5033 232.789 78.5137C232.096 77.4993 231.614 76.1387 231.342 74.4316C231.119 73.2194 231.008 70.7702 231.008 67.084V49.9023H226.221V41.5898H231.008V33.7598L241.473 27.6738V41.5898H248.598ZM265.816 81H255.389V41.5898H265.074V47.1934C266.732 44.5462 268.216 42.8021 269.527 41.9609C270.863 41.1198 272.372 40.6992 274.055 40.6992C276.43 40.6992 278.718 41.3548 280.92 42.666L277.691 51.7578C275.935 50.6198 274.302 50.0508 272.793 50.0508C271.333 50.0508 270.096 50.459 269.082 51.2754C268.068 52.0671 267.264 53.5143 266.67 55.6172C266.101 57.7201 265.816 62.1237 265.816 68.8281V81ZM283.035 60.7383C283.035 57.2747 283.889 53.9225 285.596 50.6816C287.303 47.4408 289.715 44.9668 292.832 43.2598C295.974 41.5527 299.475 40.6992 303.334 40.6992C309.296 40.6992 314.182 42.6413 317.992 46.5254C321.802 50.3848 323.707 55.2708 323.707 61.1836C323.707 67.1458 321.777 72.0938 317.918 76.0273C314.083 79.9362 309.247 81.8906 303.408 81.8906C299.796 81.8906 296.345 81.0742 293.055 79.4414C289.789 77.8086 287.303 75.4212 285.596 72.2793C283.889 69.1126 283.035 65.2656 283.035 60.7383ZM293.723 61.2949C293.723 65.2038 294.65 68.1973 296.506 70.2754C298.361 72.3535 300.65 73.3926 303.371 73.3926C306.092 73.3926 308.368 72.3535 310.199 70.2754C312.055 68.1973 312.982 65.179 312.982 61.2207C312.982 57.3613 312.055 54.3926 310.199 52.3145C308.368 50.2363 306.092 49.1973 303.371 49.1973C300.65 49.1973 298.361 50.2363 296.506 52.3145C294.65 54.3926 293.723 57.3861 293.723 61.2949Z" fill="#ffffff"/>
  <path fill-rule="evenodd" clip-rule="evenodd" d="M12 11C5.37258 11 0 16.3726 0 23V90C0 96.6274 5.37258 102 12 102H79C85.6274 102 91 96.6274 91 90V23C91 16.3726 85.6274 11 79 11H12ZM36.7894 54.5593L14 89H30.1482L44.9773 66.1746L59.7608 89H76L53.2106 55.0546L73.953 23H58.3507L45.2502 44.2046L31.8767 23H16.1379L36.7894 54.5593Z" fill="#ffffff"/>
  </svg>
  