<svg viewBox="0 0 359 280" fill="none" xmlns="http://www.w3.org/2000/svg">
  <path fill-rule="evenodd" clip-rule="evenodd" d="M-76 7C-76 4.23857 -73.7614 2 -71 2H246.488C249.249 2 251.488 4.23858 251.488 7V172.44C251.488 175.201 249.249 177.44 246.488 177.44H100.902V213.99H142.686C145.447 213.99 147.686 216.228 147.686 218.99V236.768C147.686 239.529 145.447 241.768 142.686 241.768L29.8779 241.768C27.1165 241.768 24.8779 239.529 24.8779 236.768V218.99C24.8779 216.228 27.1165 213.99 29.8779 213.99H73.1239V177.44H-71C-73.7614 177.44 -76 175.201 -76 172.44V7Z" fill="#AAC8CE"/>
  <rect x="120" y="168" width="235" height="112" rx="12" fill="#125089"/>
  <rect x="136" y="242" width="87" height="10" rx="3" fill="#E3E3E3"/>
  <rect x="136" y="242" width="87" height="10" rx="3" fill="#E3E3E3"/>
  <rect x="136" y="242" width="87" height="10" rx="3" fill="#E3E3E3"/>
  <rect x="136" y="228" width="40" height="10" rx="3" fill="#E3E3E3"/>
  <rect x="136" y="228" width="40" height="10" rx="3" fill="#E3E3E3"/>
  <rect x="136" y="228" width="40" height="10" rx="3" fill="#E3E3E3"/>
  <rect x="180" y="228" width="40" height="10" rx="3" fill="#E3E3E3"/>
  <rect x="180" y="228" width="40" height="10" rx="3" fill="#E3E3E3"/>
  <rect x="180" y="228" width="40" height="10" rx="3" fill="#E3E3E3"/>
  <rect x="224" y="228" width="40" height="10" rx="3" fill="#E3E3E3"/>
  <rect x="224" y="228" width="40" height="10" rx="3" fill="#E3E3E3"/>
  <rect x="224" y="228" width="40" height="10" rx="3" fill="#E3E3E3"/>
  <rect x="268" y="228" width="40" height="10" rx="3" fill="#E3E3E3"/>
  <rect x="268" y="228" width="40" height="10" rx="3" fill="#E3E3E3"/>
  <rect x="268" y="228" width="40" height="10" rx="3" fill="#E3E3E3"/>
  <rect x="136" y="256" width="21" height="10" rx="3" fill="#E3E3E3"/>
  <rect x="136" y="256" width="21" height="10" rx="3" fill="#E3E3E3"/>
  <rect x="136" y="256" width="21" height="10" rx="3" fill="#E3E3E3"/>
  <rect x="162" y="256" width="21" height="10" rx="3" fill="#E3E3E3"/>
  <rect x="162" y="256" width="21" height="10" rx="3" fill="#E3E3E3"/>
  <rect x="162" y="256" width="21" height="10" rx="3" fill="#E3E3E3"/>
  <circle cx="315" cy="260" r="12" fill="#FFA370"/>
  <circle cx="315" cy="260" r="12" fill="#FFA370"/>
  <circle cx="331" cy="260" r="12" fill="#0076B9"/>
  <circle cx="331" cy="260" r="12" fill="#C20000"/>
  <circle cx="154" cy="198" r="18" fill="#DDDDDD"/>
  <rect x="72.5764" y="138.619" width="234" height="111" rx="11.5" transform="rotate(-9.60469 72.5764 138.619)" fill="#125089" stroke="white"/>
  <rect x="100.123" y="208.503" width="87" height="10" rx="3" transform="rotate(-9.60469 100.123 208.503)" fill="#E3E3E3"/>
  <rect x="100.123" y="208.503" width="87" height="10" rx="3" transform="rotate(-9.60469 100.123 208.503)" fill="#E3E3E3"/>
  <rect x="100.123" y="208.503" width="87" height="10" rx="3" transform="rotate(-9.60469 100.123 208.503)" fill="#E3E3E3"/>
  <rect x="97.7866" y="194.699" width="40" height="10" rx="3" transform="rotate(-9.60469 97.7866 194.699)" fill="#E3E3E3"/>
  <rect x="97.7866" y="194.699" width="40" height="10" rx="3" transform="rotate(-9.60469 97.7866 194.699)" fill="#E3E3E3"/>
  <rect x="97.7866" y="194.699" width="40" height="10" rx="3" transform="rotate(-9.60469 97.7866 194.699)" fill="#E3E3E3"/>
  <rect x="141.17" y="187.358" width="40" height="10" rx="3" transform="rotate(-9.60469 141.17 187.358)" fill="#E3E3E3"/>
  <rect x="141.17" y="187.358" width="40" height="10" rx="3" transform="rotate(-9.60469 141.17 187.358)" fill="#E3E3E3"/>
  <rect x="141.17" y="187.358" width="40" height="10" rx="3" transform="rotate(-9.60469 141.17 187.358)" fill="#E3E3E3"/>
  <rect x="184.553" y="180.016" width="40" height="10" rx="3" transform="rotate(-9.60469 184.553 180.016)" fill="#E3E3E3"/>
  <rect x="184.553" y="180.016" width="40" height="10" rx="3" transform="rotate(-9.60469 184.553 180.016)" fill="#E3E3E3"/>
  <rect x="184.553" y="180.016" width="40" height="10" rx="3" transform="rotate(-9.60469 184.553 180.016)" fill="#E3E3E3"/>
  <rect x="227.936" y="172.675" width="40" height="10" rx="3" transform="rotate(-9.60469 227.936 172.675)" fill="#E3E3E3"/>
  <rect x="227.936" y="172.675" width="40" height="10" rx="3" transform="rotate(-9.60469 227.936 172.675)" fill="#E3E3E3"/>
  <rect x="227.936" y="172.675" width="40" height="10" rx="3" transform="rotate(-9.60469 227.936 172.675)" fill="#E3E3E3"/>
  <rect x="102.458" y="222.306" width="21" height="10" rx="3" transform="rotate(-9.60469 102.458 222.306)" fill="#E3E3E3"/>
  <rect x="102.458" y="222.306" width="21" height="10" rx="3" transform="rotate(-9.60469 102.458 222.306)" fill="#E3E3E3"/>
  <rect x="102.458" y="222.306" width="21" height="10" rx="3" transform="rotate(-9.60469 102.458 222.306)" fill="#E3E3E3"/>
  <rect x="128.094" y="217.968" width="21" height="10" rx="3" transform="rotate(-9.60469 128.094 217.968)" fill="#E3E3E3"/>
  <rect x="128.094" y="217.968" width="21" height="10" rx="3" transform="rotate(-9.60469 128.094 217.968)" fill="#E3E3E3"/>
  <rect x="128.094" y="217.968" width="21" height="10" rx="3" transform="rotate(-9.60469 128.094 217.968)" fill="#E3E3E3"/>
  <circle cx="110.529" cy="162.116" r="18" transform="rotate(-9.60469 110.529 162.116)" fill="#DDDDDD"/>
  <path d="M254.28 134.748L258.435 134.045C259.313 133.896 259.98 133.528 260.434 132.94C260.888 132.347 261.042 131.62 260.896 130.76C260.799 130.185 260.567 129.708 260.2 129.33C259.837 128.951 259.38 128.693 258.826 128.554C259.15 128.287 259.384 127.951 259.529 127.548C259.678 127.14 259.713 126.708 259.636 126.252C259.557 125.783 259.369 125.374 259.074 125.027C258.778 124.674 258.403 124.418 257.95 124.258C257.497 124.098 256.992 124.066 256.435 124.16L252.598 124.809L254.28 134.748ZM254.336 128.874L253.782 125.596L256.591 125.12C257.092 125.035 257.529 125.113 257.901 125.353C258.277 125.592 258.505 125.946 258.585 126.416C258.669 126.913 258.57 127.348 258.288 127.723C258.005 128.092 257.624 128.318 257.145 128.399L254.336 128.874ZM255.136 133.602L254.499 129.833L257.57 129.314C257.943 129.251 258.291 129.282 258.615 129.407C258.939 129.532 259.209 129.73 259.426 130.001C259.646 130.266 259.787 130.583 259.849 130.951C259.945 131.517 259.815 131.994 259.459 132.38C259.103 132.767 258.624 133.012 258.021 133.114L255.136 133.602ZM262.055 133.432L263.111 133.253L263.532 130.704L267.949 129.957L269.192 132.224L270.248 132.046L265.142 122.686L263.797 122.914L262.055 133.432ZM263.702 129.696L264.653 123.948L267.456 129.061L263.702 129.696ZM271.494 131.835L272.515 131.662L271.136 123.511L277.989 130.736L279.01 130.563L277.328 120.624L276.307 120.797L277.685 128.941L270.834 121.723L269.812 121.896L271.494 131.835ZM280.944 130.236L281.958 130.064L281.117 125.095L286.845 129.237L288.17 129.013L282.289 124.719L286.108 119.138L284.811 119.358L281.07 124.819L280.276 120.125L279.262 120.297L280.944 130.236Z" fill="white"/>
  <circle cx="287" cy="50" r="18.5" stroke="#FF8A00" stroke-width="3"/>
  <circle cx="348" cy="20" r="9.5" stroke="#FF8A00" stroke-width="3"/>
  <circle cx="332" cy="50" r="9.5" stroke="#FF8A00" stroke-width="3"/>
  <circle cx="314" cy="15" r="13.5" stroke="#FF8A00" stroke-width="3"/>
  </svg>
  