<svg  viewBox="0 0 328 280" fill="none" xmlns="http://www.w3.org/2000/svg">
  <path d="M92.602 73.2867C-81.9915 145.995 28.4935 222.047 113.744 219.958C474.525 219.958 261.739 147.249 271.288 84.9869C269.924 56.8506 232.277 15.1196 92.602 73.2867Z" fill="#E8E8E8"/>
  <rect x="146" y="96" width="112" height="184" rx="13" fill="#1D2627"/>
  <rect opacity="0.35" x="239.148" y="104.803" width="7.096" height="3.12121" rx="1.56061" stroke="#F2F2F2"/>
  <path opacity="0.4" d="M247.112 105.636V107.091C247.408 106.968 247.601 106.681 247.601 106.364C247.601 106.046 247.408 105.76 247.112 105.636Z" fill="#F2F2F2"/>
  <rect x="239.384" y="105.03" width="6.62399" height="2.66667" rx="1.33333" fill="#F2F2F2"/>
  <path fill-rule="evenodd" clip-rule="evenodd" d="M233.986 105.13C234.801 105.13 235.585 105.44 236.176 105.995C236.221 106.038 236.292 106.037 236.336 105.994L236.761 105.57C236.783 105.547 236.796 105.518 236.796 105.486C236.795 105.455 236.783 105.426 236.76 105.404C235.209 103.935 232.762 103.935 231.211 105.404C231.188 105.426 231.176 105.455 231.175 105.486C231.175 105.518 231.187 105.547 231.21 105.57L231.635 105.994C231.679 106.037 231.75 106.038 231.795 105.995C232.386 105.44 233.17 105.13 233.986 105.13ZM233.986 106.51C234.434 106.51 234.866 106.675 235.198 106.972C235.243 107.014 235.313 107.013 235.357 106.97L235.782 106.546C235.805 106.524 235.817 106.493 235.817 106.462C235.816 106.431 235.803 106.401 235.78 106.379C234.769 105.449 233.203 105.449 232.192 106.379C232.169 106.401 232.156 106.431 232.155 106.462C232.155 106.493 232.168 106.524 232.19 106.546L232.615 106.97C232.659 107.013 232.729 107.014 232.774 106.972C233.106 106.675 233.538 106.511 233.986 106.51ZM234.837 107.439C234.837 107.471 234.825 107.501 234.802 107.523L234.067 108.256C234.046 108.277 234.016 108.29 233.986 108.29C233.955 108.29 233.926 108.277 233.904 108.256L233.169 107.523C233.146 107.501 233.134 107.471 233.134 107.439C233.135 107.408 233.149 107.378 233.172 107.357C233.642 106.964 234.329 106.964 234.799 107.357C234.822 107.378 234.836 107.408 234.837 107.439Z" fill="#F2F2F2"/>
  <path fill-rule="evenodd" clip-rule="evenodd" d="M228.957 104.424H228.589C228.386 104.424 228.221 104.587 228.221 104.788V107.939C228.221 108.14 228.386 108.303 228.589 108.303H228.957C229.161 108.303 229.325 108.14 229.325 107.939V104.788C229.325 104.587 229.161 104.424 228.957 104.424ZM226.872 105.273H227.24C227.443 105.273 227.608 105.436 227.608 105.636V107.939C227.608 108.14 227.443 108.303 227.24 108.303H226.872C226.669 108.303 226.504 108.14 226.504 107.939V105.636C226.504 105.436 226.669 105.273 226.872 105.273ZM225.523 106.121H225.155C224.951 106.121 224.787 106.284 224.787 106.485V107.939C224.787 108.14 224.951 108.303 225.155 108.303H225.523C225.726 108.303 225.891 108.14 225.891 107.939V106.485C225.891 106.284 225.726 106.121 225.523 106.121ZM223.805 106.848H223.437C223.234 106.848 223.069 107.011 223.069 107.212V107.939C223.069 108.14 223.234 108.303 223.437 108.303H223.805C224.009 108.303 224.173 108.14 224.173 107.939V107.212C224.173 107.011 224.009 106.848 223.805 106.848Z" fill="#F2F2F2"/>
  <path d="M154.762 108.114L155.353 108.059C155.403 108.337 155.499 108.539 155.64 108.664C155.781 108.79 155.963 108.852 156.184 108.852C156.373 108.852 156.538 108.809 156.679 108.722C156.823 108.636 156.94 108.521 157.031 108.377C157.122 108.231 157.199 108.035 157.26 107.789C157.322 107.543 157.353 107.293 157.353 107.037C157.353 107.01 157.351 106.969 157.349 106.914C157.226 107.11 157.058 107.27 156.843 107.393C156.631 107.514 156.401 107.574 156.153 107.574C155.738 107.574 155.387 107.424 155.1 107.123C154.813 106.822 154.67 106.426 154.67 105.933C154.67 105.425 154.819 105.016 155.117 104.706C155.418 104.396 155.794 104.241 156.245 104.241C156.571 104.241 156.868 104.329 157.137 104.505C157.408 104.68 157.614 104.931 157.753 105.257C157.894 105.58 157.964 106.05 157.964 106.665C157.964 107.305 157.895 107.816 157.756 108.196C157.617 108.574 157.41 108.863 157.134 109.061C156.86 109.259 156.539 109.358 156.17 109.358C155.778 109.358 155.458 109.25 155.21 109.033C154.961 108.815 154.812 108.508 154.762 108.114ZM157.281 105.903C157.281 105.549 157.186 105.269 156.997 105.062C156.81 104.854 156.585 104.751 156.32 104.751C156.047 104.751 155.809 104.862 155.606 105.086C155.403 105.309 155.302 105.598 155.302 105.954C155.302 106.273 155.398 106.533 155.589 106.733C155.783 106.931 156.021 107.031 156.303 107.031C156.588 107.031 156.822 106.931 157.004 106.733C157.189 106.533 157.281 106.256 157.281 105.903ZM158.628 106.344V105.643H159.328V106.344H158.628ZM158.628 109.273V108.572H159.328V109.273H158.628ZM161.926 109.273V108.073H159.753V107.509L162.039 104.262H162.542V107.509H163.218V108.073H162.542V109.273H161.926ZM161.926 107.509V105.25L160.358 107.509H161.926ZM165.888 109.273H165.273V105.352C165.125 105.494 164.93 105.635 164.688 105.776C164.449 105.917 164.234 106.023 164.042 106.094V105.499C164.386 105.337 164.687 105.142 164.945 104.911C165.202 104.681 165.385 104.458 165.492 104.241H165.888V109.273Z" fill="#F2F2F2"/>
  <rect x="158" y="125" width="61" height="3.80952" rx="1.90476" fill="white"/>
  <rect x="158" y="131.095" width="32" height="3.80952" rx="1.90476" fill="white"/>
  <rect x="158" y="137.19" width="44" height="3.80952" rx="1.90476" fill="white"/>
  <rect x="224" y="131" width="27" height="10" rx="2" fill="#125089"/>
  <path d="M231 134L233.5 138.5L245.5 133" stroke="white"/>
  <rect x="158" y="150" width="61" height="3.80952" rx="1.90476" fill="white"/>
  <rect x="158" y="156.095" width="32" height="3.80952" rx="1.90476" fill="white"/>
  <rect x="158" y="162.19" width="44" height="3.80952" rx="1.90476" fill="white"/>
  <rect x="224" y="156" width="27" height="10" rx="2" fill="#125089"/>
  <path d="M231 159L233.5 163.5L245.5 158" stroke="white"/>
  <rect x="158" y="174" width="61" height="3.80952" rx="1.90476" fill="white"/>
  <rect x="158" y="180.095" width="32" height="3.80952" rx="1.90476" fill="white"/>
  <rect x="158" y="186.19" width="44" height="3.80952" rx="1.90476" fill="white"/>
  <rect x="224" y="180" width="27" height="10" rx="2" fill="#125089"/>
  <path d="M231 183L233.5 187.5L245.5 182" stroke="white"/>
  <rect x="158" y="199" width="61" height="3.80952" rx="1.90476" fill="white"/>
  <rect x="158" y="205.095" width="32" height="3.80952" rx="1.90476" fill="white"/>
  <rect x="158" y="211.19" width="44" height="3.80952" rx="1.90476" fill="white"/>
  <rect x="224" y="205" width="27" height="10" rx="2" fill="#125089"/>
  <path d="M231 208L233.5 212.5L245.5 207" stroke="white"/>
  <path d="M58.8929 176.157C61.8393 178.674 65.1429 180.742 68.8036 182.36C72.4643 183.888 76.7946 184.652 81.7946 184.652C87.6875 184.652 92.3304 183.438 95.7232 181.011C99.2054 178.494 100.946 175.124 100.946 170.899C100.946 169.101 100.679 167.483 100.143 166.045C99.6964 164.517 98.7589 163.079 97.3304 161.73C95.9018 160.382 93.8929 159.034 91.3036 157.685C88.7143 156.337 85.3661 154.854 81.2589 153.236C76.7946 151.528 73.0446 149.82 70.0089 148.112C66.9732 146.315 64.5179 144.427 62.6429 142.449C60.7679 140.382 59.3839 138.18 58.4911 135.843C57.6875 133.416 57.2857 130.629 57.2857 127.483C57.2857 124.697 57.8214 122.045 58.8929 119.528C59.9643 116.921 61.5268 114.674 63.5804 112.787C65.7232 110.809 68.3125 109.191 71.3482 107.933C74.3839 106.584 77.8661 105.73 81.7946 105.371L80.7232 90H92.5089L91.3036 105.371C95.3214 105.64 98.9821 106.27 102.286 107.258C105.679 108.247 108.982 109.506 112.196 111.034L107.911 121.146C105.054 119.528 101.75 118.135 98 116.966C94.3393 115.798 90.4554 115.213 86.3482 115.213C80.9018 115.213 76.6161 116.292 73.4911 118.449C70.3661 120.607 68.8036 123.393 68.8036 126.809C68.8036 128.427 69.0268 129.91 69.4732 131.258C69.9196 132.517 70.8125 133.775 72.1518 135.034C73.4911 136.202 75.3661 137.416 77.7768 138.674C80.2768 139.933 83.5357 141.281 87.5536 142.719C92.375 144.517 96.3929 146.36 99.6072 148.247C102.911 150.135 105.545 152.157 107.509 154.315C109.473 156.472 110.857 158.809 111.661 161.326C112.554 163.753 113 166.449 113 169.416C113 173.011 112.375 176.247 111.125 179.124C109.964 182 108.268 184.517 106.036 186.674C103.893 188.742 101.304 190.449 98.2679 191.798C95.2321 193.146 91.9286 194.045 88.3571 194.494L89.5625 210H77.7768L78.8482 194.899C73.4911 194.539 68.5804 193.596 64.1161 192.067C59.6518 190.539 55.9464 188.562 53 186.135L58.8929 176.157Z" fill="#E4E4E4"/>
  <path d="M42.8929 184.157C45.8393 186.674 49.1429 188.742 52.8036 190.36C56.4643 191.888 60.7946 192.652 65.7946 192.652C71.6875 192.652 76.3304 191.438 79.7232 189.011C83.2054 186.494 84.9464 183.124 84.9464 178.899C84.9464 177.101 84.6786 175.483 84.1429 174.045C83.6964 172.517 82.7589 171.079 81.3304 169.73C79.9018 168.382 77.8929 167.034 75.3036 165.685C72.7143 164.337 69.3661 162.854 65.2589 161.236C60.7946 159.528 57.0446 157.82 54.0089 156.112C50.9732 154.315 48.5179 152.427 46.6429 150.449C44.7679 148.382 43.3839 146.18 42.4911 143.843C41.6875 141.416 41.2857 138.629 41.2857 135.483C41.2857 132.697 41.8214 130.045 42.8929 127.528C43.9643 124.921 45.5268 122.674 47.5804 120.787C49.7232 118.809 52.3125 117.191 55.3482 115.933C58.3839 114.584 61.8661 113.73 65.7946 113.371L64.7232 98H76.5089L75.3036 113.371C79.3214 113.64 82.9821 114.27 86.2857 115.258C89.6786 116.247 92.9822 117.506 96.1964 119.034L91.9107 129.146C89.0536 127.528 85.75 126.135 82 124.966C78.3393 123.798 74.4554 123.213 70.3482 123.213C64.9018 123.213 60.6161 124.292 57.4911 126.449C54.3661 128.607 52.8036 131.393 52.8036 134.809C52.8036 136.427 53.0268 137.91 53.4732 139.258C53.9196 140.517 54.8125 141.775 56.1518 143.034C57.4911 144.202 59.3661 145.416 61.7768 146.674C64.2768 147.933 67.5357 149.281 71.5536 150.719C76.375 152.517 80.3929 154.36 83.6072 156.247C86.9107 158.135 89.5446 160.157 91.5089 162.315C93.4732 164.472 94.8572 166.809 95.6607 169.326C96.5536 171.753 97 174.449 97 177.416C97 181.011 96.375 184.247 95.125 187.124C93.9643 190 92.2679 192.517 90.0357 194.674C87.8929 196.742 85.3036 198.449 82.2679 199.798C79.2321 201.146 75.9286 202.045 72.3571 202.494L73.5625 218H61.7768L62.8482 202.899C57.4911 202.539 52.5804 201.596 48.1161 200.067C43.6518 198.539 39.9464 196.562 37 194.135L42.8929 184.157Z" fill="#FF8A00"/>
  <circle cx="256" cy="50" r="18.5" stroke="#FF8A00" stroke-width="3"/>
  <circle cx="317" cy="20" r="9.5" stroke="#FF8A00" stroke-width="3"/>
  <circle cx="301" cy="50" r="9.5" stroke="#FF8A00" stroke-width="3"/>
  <circle cx="283" cy="15" r="13.5" stroke="#FF8A00" stroke-width="3"/>
  </svg>
  