<svg viewBox="0 0 347 281" fill="none" xmlns="http://www.w3.org/2000/svg">
  <path d="M77.6289 246.88C-78.2728 241.453 41.4341 192.218 120.775 168.28C79.2738 82.8104 198.707 106.291 191.561 167.715C184.414 229.139 256 193.299 250.934 176.905C245.868 160.511 274.752 72.7907 317.251 197.358C359.75 321.926 272.506 253.663 77.6289 246.88Z" fill="#E8E8E8"/>
  <path d="M33 246.473L54.4629 163.481L77.0859 272.58L103.77 136L125.232 280L151.916 187.389L184.4 239.053L194.262 150.015L223.846 280L252.27 173.374L278.953 265.16L301.576 187.389L330 270.382" stroke="#ED8080" stroke-width="4"/>
  <path d="M25.5 265L76.5 234.5L113 249L157 220L208 201.5H246L335 170" stroke="#009D06" stroke-width="4"/>
  <mask id="path-4-inside-1" fill="white">
  <path d="M321 150.5C321 141.228 318.228 132.168 313.041 124.483C307.853 116.798 300.486 110.84 291.887 107.373C283.288 103.906 273.849 103.089 264.781 105.027C255.714 106.965 247.434 111.569 241.003 118.248C234.572 124.927 230.285 133.376 228.692 142.51C227.098 151.644 228.272 161.046 232.062 169.508C235.852 177.97 242.086 185.105 249.961 189.998C257.837 194.891 266.996 197.318 276.261 196.967L274.5 150.5H321Z"/>
  </mask>
  <path d="M321 150.5C321 141.228 318.228 132.168 313.041 124.483C307.853 116.798 300.486 110.84 291.887 107.373C283.288 103.906 273.849 103.089 264.781 105.027C255.714 106.965 247.434 111.569 241.003 118.248C234.572 124.927 230.285 133.376 228.692 142.51C227.098 151.644 228.272 161.046 232.062 169.508C235.852 177.97 242.086 185.105 249.961 189.998C257.837 194.891 266.996 197.318 276.261 196.967L274.5 150.5H321Z" fill="#009D06" stroke="white" stroke-width="2" mask="url(#path-4-inside-1)"/>
  <mask id="path-5-inside-2" fill="white">
  <path d="M281.116 198.858C292.685 197.946 303.498 192.695 311.432 184.136C319.366 175.577 323.848 164.33 323.996 152.602L277.5 152L281.116 198.858Z"/>
  </mask>
  <path d="M281.116 198.858C292.685 197.946 303.498 192.695 311.432 184.136C319.366 175.577 323.848 164.33 323.996 152.602L277.5 152L281.116 198.858Z" fill="#ED8080" stroke="white" stroke-width="2" mask="url(#path-5-inside-2)"/>
  <circle cx="275" cy="50" r="18.5" stroke="#FF8A00" stroke-width="3"/>
  <circle cx="336" cy="20" r="9.5" stroke="#FF8A00" stroke-width="3"/>
  <circle cx="320" cy="50" r="9.5" stroke="#FF8A00" stroke-width="3"/>
  <circle cx="302" cy="15" r="13.5" stroke="#FF8A00" stroke-width="3"/>
  </svg>
  