<svg viewBox="0 0 317 280" fill="none" xmlns="http://www.w3.org/2000/svg">
  <path d="M107.818 237.651C-9.75908 233.559 80.5211 196.427 140.358 178.373C109.059 113.914 199.133 131.623 193.743 177.947C188.353 224.272 242.342 197.242 238.521 184.878C234.701 172.514 256.484 106.358 288.536 200.304C320.588 294.249 254.79 242.767 107.818 237.651Z" fill="#E8E8E8"/>
  <path fill-rule="evenodd" clip-rule="evenodd" d="M57.9913 171.637L46.774 174.6C43.7404 171.143 35.98 165.711 29.2073 171.637V184.336C25.8915 186.452 17.9053 193.86 12.4872 206.559C8.53643 205.782 0.507953 206.77 0 216.929V225.183C0.776039 227.935 4.10595 233.395 11.2173 233.226C14.8153 239.505 23.4505 252.909 29.2073 256.296V272.169C29.1367 274.638 30.6042 279.661 37.0382 280H50.1603C52.0652 279.365 55.8748 276.91 55.8748 272.169V268.359C60.8132 269.77 74.923 271.746 91.8548 268.359C91.6431 272.24 92.659 280 98.4158 280H112.596C114.289 279.788 117.76 277.926 118.099 272.169V253.967C123.249 249.876 133.888 237.29 135.242 219.681C140.604 217.282 149.465 209.437 142.015 197.246C141.027 201.973 137.994 211.215 133.761 210.368C132.068 201.902 125.761 189.923 110.691 180.103L101.591 185.817C106.247 188.216 113.189 193.86 103.707 197.246C97.5693 192.801 78.4364 187.256 62.8591 188.78C57.3563 188.357 56.933 179.595 63.7057 180.103L57.9913 171.637ZM32.1703 197.458C29.4189 198.093 24.1701 200.759 25.186 206.347C28.008 206.276 33.3556 204.4 32.1703 197.458Z" fill="#118B9B"/>
  <circle cx="62" cy="164" r="8.5" fill="#3798F2" stroke="white"/>
  <path d="M58.2759 165.171L62.6089 169H64.0929L59.7529 165.171H60.8309C61.0502 165.171 61.2439 165.162 61.4119 165.143C61.5845 165.124 61.7549 165.092 61.9229 165.045C62.5389 164.863 63.0219 164.546 63.3719 164.093C63.7265 163.636 63.9365 163.097 64.0019 162.476H65.0029V161.615H64.0019C63.9179 160.868 63.6425 160.257 63.1759 159.781H64.9889V158.92H58.2759V159.907H60.8309C60.9149 159.907 61.0129 159.912 61.1249 159.921C61.2415 159.926 61.3535 159.94 61.4609 159.963C61.8949 160.056 62.2309 160.259 62.4689 160.572C62.7115 160.88 62.8655 161.228 62.9309 161.615H58.2969V162.476H62.9309C62.8702 162.863 62.7185 163.213 62.4759 163.526C62.2332 163.834 61.8949 164.035 61.4609 164.128C61.3535 164.151 61.2415 164.168 61.1249 164.177C61.0129 164.186 60.9149 164.191 60.8309 164.191H58.2759V165.171Z" fill="white"/>
  <circle cx="62" cy="150" r="8.5" fill="#3798F2" stroke="white"/>
  <path d="M58.2759 151.171L62.6089 155H64.0929L59.7529 151.171H60.8309C61.0502 151.171 61.2439 151.162 61.4119 151.143C61.5845 151.124 61.7549 151.092 61.9229 151.045C62.5389 150.863 63.0219 150.546 63.3719 150.093C63.7265 149.636 63.9365 149.097 64.0019 148.476H65.0029V147.615H64.0019C63.9179 146.868 63.6425 146.257 63.1759 145.781H64.9889V144.92H58.2759V145.907H60.8309C60.9149 145.907 61.0129 145.912 61.1249 145.921C61.2415 145.926 61.3535 145.94 61.4609 145.963C61.8949 146.056 62.2309 146.259 62.4689 146.572C62.7115 146.88 62.8655 147.228 62.9309 147.615H58.2969V148.476H62.9309C62.8702 148.863 62.7185 149.213 62.4759 149.526C62.2332 149.834 61.8949 150.035 61.4609 150.128C61.3535 150.151 61.2415 150.168 61.1249 150.177C61.0129 150.186 60.9149 150.191 60.8309 150.191H58.2759V151.171Z" fill="white"/>
  <circle cx="73" cy="145" r="8.5" fill="#3798F2" stroke="white"/>
  <path d="M69.2759 146.171L73.6089 150H75.0929L70.7529 146.171H71.8309C72.0502 146.171 72.2439 146.162 72.4119 146.143C72.5845 146.124 72.7549 146.092 72.9229 146.045C73.5389 145.863 74.0219 145.546 74.3719 145.093C74.7265 144.636 74.9365 144.097 75.0019 143.476H76.0029V142.615H75.0019C74.9179 141.868 74.6425 141.257 74.1759 140.781H75.9889V139.92H69.2759V140.907H71.8309C71.9149 140.907 72.0129 140.912 72.1249 140.921C72.2415 140.926 72.3535 140.94 72.4609 140.963C72.8949 141.056 73.2309 141.259 73.4689 141.572C73.7115 141.88 73.8655 142.228 73.9309 142.615H69.2969V143.476H73.9309C73.8702 143.863 73.7185 144.213 73.4759 144.526C73.2332 144.834 72.8949 145.035 72.4609 145.128C72.3535 145.151 72.2415 145.168 72.1249 145.177C72.0129 145.186 71.9149 145.191 71.8309 145.191H69.2759V146.171Z" fill="white"/>
  <circle cx="80" cy="138" r="8.5" fill="#3798F2" stroke="white"/>
  <path d="M76.2759 139.171L80.6089 143H82.0929L77.7529 139.171H78.8309C79.0502 139.171 79.2439 139.162 79.4119 139.143C79.5845 139.124 79.7549 139.092 79.9229 139.045C80.5389 138.863 81.0219 138.546 81.3719 138.093C81.7265 137.636 81.9365 137.097 82.0019 136.476H83.0029V135.615H82.0019C81.9179 134.868 81.6425 134.257 81.1759 133.781H82.9889V132.92H76.2759V133.907H78.8309C78.9149 133.907 79.0129 133.912 79.1249 133.921C79.2415 133.926 79.3535 133.94 79.4609 133.963C79.8949 134.056 80.2309 134.259 80.4689 134.572C80.7115 134.88 80.8655 135.228 80.9309 135.615H76.2969V136.476H80.9309C80.8702 136.863 80.7185 137.213 80.4759 137.526C80.2332 137.834 79.8949 138.035 79.4609 138.128C79.3535 138.151 79.2415 138.168 79.1249 138.177C79.0129 138.186 78.9149 138.191 78.8309 138.191H76.2759V139.171Z" fill="white"/>
  <circle cx="69" cy="124" r="8.5" fill="#3798F2" stroke="white"/>
  <path d="M65.2759 125.171L69.6089 129H71.0929L66.7529 125.171H67.8309C68.0502 125.171 68.2439 125.162 68.4119 125.143C68.5845 125.124 68.7549 125.092 68.9229 125.045C69.5389 124.863 70.0219 124.546 70.3719 124.093C70.7265 123.636 70.9365 123.097 71.0019 122.476H72.0029V121.615H71.0019C70.9179 120.868 70.6425 120.257 70.1759 119.781H71.9889V118.92H65.2759V119.907H67.8309C67.9149 119.907 68.0129 119.912 68.1249 119.921C68.2415 119.926 68.3535 119.94 68.4609 119.963C68.8949 120.056 69.2309 120.259 69.4689 120.572C69.7115 120.88 69.8655 121.228 69.9309 121.615H65.2969V122.476H69.9309C69.8702 122.863 69.7185 123.213 69.4759 123.526C69.2332 123.834 68.8949 124.035 68.4609 124.128C68.3535 124.151 68.2415 124.168 68.1249 124.177C68.0129 124.186 67.9149 124.191 67.8309 124.191H65.2759V125.171Z" fill="white"/>
  <circle cx="58" cy="129" r="8.5" fill="#3798F2" stroke="white"/>
  <path d="M54.2759 130.171L58.6089 134H60.0929L55.7529 130.171H56.8309C57.0502 130.171 57.2439 130.162 57.4119 130.143C57.5845 130.124 57.7549 130.092 57.9229 130.045C58.5389 129.863 59.0219 129.546 59.3719 129.093C59.7265 128.636 59.9365 128.097 60.0019 127.476H61.0029V126.615H60.0019C59.9179 125.868 59.6425 125.257 59.1759 124.781H60.9889V123.92H54.2759V124.907H56.8309C56.9149 124.907 57.0129 124.912 57.1249 124.921C57.2415 124.926 57.3535 124.94 57.4609 124.963C57.8949 125.056 58.2309 125.259 58.4689 125.572C58.7115 125.88 58.8655 126.228 58.9309 126.615H54.2969V127.476H58.9309C58.8702 127.863 58.7185 128.213 58.4759 128.526C58.2332 128.834 57.8949 129.035 57.4609 129.128C57.3535 129.151 57.2415 129.168 57.1249 129.177C57.0129 129.186 56.9149 129.191 56.8309 129.191H54.2759V130.171Z" fill="white"/>
  <circle cx="78" cy="168" r="8.5" fill="#0F9835" stroke="white"/>
  <path d="M77.171 174.852H78.2V173.669C79.1473 173.599 79.901 173.3 80.461 172.773C81.0257 172.246 81.308 171.564 81.308 170.729C81.308 170.048 81.1283 169.502 80.769 169.091C80.4097 168.676 79.824 168.347 79.012 168.104L77.087 167.523C76.5037 167.346 76.0767 167.129 75.806 166.872C75.54 166.615 75.407 166.298 75.407 165.92C75.407 165.407 75.617 164.987 76.037 164.66C76.4617 164.329 76.996 164.165 77.64 164.17C78.3213 164.175 78.8977 164.375 79.369 164.772C79.845 165.169 80.132 165.687 80.23 166.326L81.259 166.13C81.119 165.318 80.7783 164.658 80.237 164.149C79.6957 163.636 79.0167 163.328 78.2 163.225V162H77.171V163.211C76.3263 163.29 75.6497 163.58 75.141 164.079C74.6323 164.574 74.378 165.201 74.378 165.962C74.378 167.147 75.0547 167.95 76.408 168.37L78.648 169.07C79.2453 169.252 79.67 169.471 79.922 169.728C80.1787 169.985 80.307 170.328 80.307 170.757C80.307 171.336 80.0807 171.805 79.628 172.164C79.18 172.519 78.5873 172.696 77.85 172.696C77.1267 172.696 76.5083 172.509 75.995 172.136C75.4863 171.763 75.155 171.252 75.001 170.603L74 170.778C74.1447 171.571 74.4993 172.22 75.064 172.724C75.6287 173.228 76.331 173.534 77.171 173.641V174.852Z" fill="white"/>
  <circle cx="82" cy="156" r="8.5" fill="#0F9835" stroke="white"/>
  <path d="M81.171 162.852H82.2V161.669C83.1473 161.599 83.901 161.3 84.461 160.773C85.0257 160.246 85.308 159.564 85.308 158.729C85.308 158.048 85.1283 157.502 84.769 157.091C84.4097 156.676 83.824 156.347 83.012 156.104L81.087 155.523C80.5037 155.346 80.0767 155.129 79.806 154.872C79.54 154.615 79.407 154.298 79.407 153.92C79.407 153.407 79.617 152.987 80.037 152.66C80.4617 152.329 80.996 152.165 81.64 152.17C82.3213 152.175 82.8977 152.375 83.369 152.772C83.845 153.169 84.132 153.687 84.23 154.326L85.259 154.13C85.119 153.318 84.7783 152.658 84.237 152.149C83.6957 151.636 83.0167 151.328 82.2 151.225V150H81.171V151.211C80.3263 151.29 79.6497 151.58 79.141 152.079C78.6323 152.574 78.378 153.201 78.378 153.962C78.378 155.147 79.0547 155.95 80.408 156.37L82.648 157.07C83.2453 157.252 83.67 157.471 83.922 157.728C84.1787 157.985 84.307 158.328 84.307 158.757C84.307 159.336 84.0807 159.805 83.628 160.164C83.18 160.519 82.5873 160.696 81.85 160.696C81.1267 160.696 80.5083 160.509 79.995 160.136C79.4863 159.763 79.155 159.252 79.001 158.603L78 158.778C78.1447 159.571 78.4993 160.22 79.064 160.724C79.6287 161.228 80.331 161.534 81.171 161.641V162.852Z" fill="white"/>
  <circle cx="100" cy="152" r="8.5" fill="#0F9835" stroke="white"/>
  <path d="M99.171 158.852H100.2V157.669C101.147 157.599 101.901 157.3 102.461 156.773C103.026 156.246 103.308 155.564 103.308 154.729C103.308 154.048 103.128 153.502 102.769 153.091C102.41 152.676 101.824 152.347 101.012 152.104L99.087 151.523C98.5037 151.346 98.0767 151.129 97.806 150.872C97.54 150.615 97.407 150.298 97.407 149.92C97.407 149.407 97.617 148.987 98.037 148.66C98.4617 148.329 98.996 148.165 99.64 148.17C100.321 148.175 100.898 148.375 101.369 148.772C101.845 149.169 102.132 149.687 102.23 150.326L103.259 150.13C103.119 149.318 102.778 148.658 102.237 148.149C101.696 147.636 101.017 147.328 100.2 147.225V146H99.171V147.211C98.3263 147.29 97.6497 147.58 97.141 148.079C96.6323 148.574 96.378 149.201 96.378 149.962C96.378 151.147 97.0547 151.95 98.408 152.37L100.648 153.07C101.245 153.252 101.67 153.471 101.922 153.728C102.179 153.985 102.307 154.328 102.307 154.757C102.307 155.336 102.081 155.805 101.628 156.164C101.18 156.519 100.587 156.696 99.85 156.696C99.1267 156.696 98.5083 156.509 97.995 156.136C97.4863 155.763 97.155 155.252 97.001 154.603L96 154.778C96.1447 155.571 96.4993 156.22 97.064 156.724C97.6287 157.228 98.331 157.534 99.171 157.641V158.852Z" fill="white"/>
  <circle cx="97" cy="141" r="8.5" fill="#0F9835" stroke="white"/>
  <path d="M96.171 147.852H97.2V146.669C98.1473 146.599 98.901 146.3 99.461 145.773C100.026 145.246 100.308 144.564 100.308 143.729C100.308 143.048 100.128 142.502 99.769 142.091C99.4097 141.676 98.824 141.347 98.012 141.104L96.087 140.523C95.5037 140.346 95.0767 140.129 94.806 139.872C94.54 139.615 94.407 139.298 94.407 138.92C94.407 138.407 94.617 137.987 95.037 137.66C95.4617 137.329 95.996 137.165 96.64 137.17C97.3213 137.175 97.8977 137.375 98.369 137.772C98.845 138.169 99.132 138.687 99.23 139.326L100.259 139.13C100.119 138.318 99.7783 137.658 99.237 137.149C98.6957 136.636 98.0167 136.328 97.2 136.225V135H96.171V136.211C95.3263 136.29 94.6497 136.58 94.141 137.079C93.6323 137.574 93.378 138.201 93.378 138.962C93.378 140.147 94.0547 140.95 95.408 141.37L97.648 142.07C98.2453 142.252 98.67 142.471 98.922 142.728C99.1787 142.985 99.307 143.328 99.307 143.757C99.307 144.336 99.0807 144.805 98.628 145.164C98.18 145.519 97.5873 145.696 96.85 145.696C96.1267 145.696 95.5083 145.509 94.995 145.136C94.4863 144.763 94.155 144.252 94.001 143.603L93 143.778C93.1447 144.571 93.4993 145.22 94.064 145.724C94.6287 146.228 95.331 146.534 96.171 146.641V147.852Z" fill="white"/>
  <circle cx="94" cy="129" r="8.5" fill="#0F9835" stroke="white"/>
  <path d="M93.171 135.852H94.2V134.669C95.1473 134.599 95.901 134.3 96.461 133.773C97.0257 133.246 97.308 132.564 97.308 131.729C97.308 131.048 97.1283 130.502 96.769 130.091C96.4097 129.676 95.824 129.347 95.012 129.104L93.087 128.523C92.5037 128.346 92.0767 128.129 91.806 127.872C91.54 127.615 91.407 127.298 91.407 126.92C91.407 126.407 91.617 125.987 92.037 125.66C92.4617 125.329 92.996 125.165 93.64 125.17C94.3213 125.175 94.8977 125.375 95.369 125.772C95.845 126.169 96.132 126.687 96.23 127.326L97.259 127.13C97.119 126.318 96.7783 125.658 96.237 125.149C95.6957 124.636 95.0167 124.328 94.2 124.225V123H93.171V124.211C92.3263 124.29 91.6497 124.58 91.141 125.079C90.6323 125.574 90.378 126.201 90.378 126.962C90.378 128.147 91.0547 128.95 92.408 129.37L94.648 130.07C95.2453 130.252 95.67 130.471 95.922 130.728C96.1787 130.985 96.307 131.328 96.307 131.757C96.307 132.336 96.0807 132.805 95.628 133.164C95.18 133.519 94.5873 133.696 93.85 133.696C93.1267 133.696 92.5083 133.509 91.995 133.136C91.4863 132.763 91.155 132.252 91.001 131.603L90 131.778C90.1447 132.571 90.4993 133.22 91.064 133.724C91.6287 134.228 92.331 134.534 93.171 134.641V135.852Z" fill="white"/>
  <circle cx="80" cy="118" r="8.5" fill="#0F9835" stroke="white"/>
  <path d="M79.171 124.852H80.2V123.669C81.1473 123.599 81.901 123.3 82.461 122.773C83.0257 122.246 83.308 121.564 83.308 120.729C83.308 120.048 83.1283 119.502 82.769 119.091C82.4097 118.676 81.824 118.347 81.012 118.104L79.087 117.523C78.5037 117.346 78.0767 117.129 77.806 116.872C77.54 116.615 77.407 116.298 77.407 115.92C77.407 115.407 77.617 114.987 78.037 114.66C78.4617 114.329 78.996 114.165 79.64 114.17C80.3213 114.175 80.8977 114.375 81.369 114.772C81.845 115.169 82.132 115.687 82.23 116.326L83.259 116.13C83.119 115.318 82.7783 114.658 82.237 114.149C81.6957 113.636 81.0167 113.328 80.2 113.225V112H79.171V113.211C78.3263 113.29 77.6497 113.58 77.141 114.079C76.6323 114.574 76.378 115.201 76.378 115.962C76.378 117.147 77.0547 117.95 78.408 118.37L80.648 119.07C81.2453 119.252 81.67 119.471 81.922 119.728C82.1787 119.985 82.307 120.328 82.307 120.757C82.307 121.336 82.0807 121.805 81.628 122.164C81.18 122.519 80.5873 122.696 79.85 122.696C79.1267 122.696 78.5083 122.509 77.995 122.136C77.4863 121.763 77.155 121.252 77.001 120.603L76 120.778C76.1447 121.571 76.4993 122.22 77.064 122.724C77.6287 123.228 78.331 123.534 79.171 123.641V124.852Z" fill="white"/>
  <circle cx="99" cy="106" r="8.5" fill="#14528C" stroke="white"/>
  <path d="M96.3494 109.425H98.4914V111H99.5274V109.425H101.669V108.543H99.5274V107.381H101.669V106.499H99.6884L102.894 100.92H101.704L99.0094 105.603L96.3004 100.92H95.1104L98.3304 106.499H96.3494V107.381H98.4914V108.543H96.3494V109.425Z" fill="white"/>
  <circle cx="113" cy="120" r="8.5" fill="#14528C" stroke="white"/>
  <path d="M110.349 123.425H112.491V125H113.527V123.425H115.669V122.543H113.527V121.381H115.669V120.499H113.688L116.894 114.92H115.704L113.009 119.603L110.3 114.92H109.11L112.33 120.499H110.349V121.381H112.491V122.543H110.349V123.425Z" fill="white"/>
  <circle cx="105" cy="131" r="8.5" fill="#14528C" stroke="white"/>
  <path d="M102.349 134.425H104.491V136H105.527V134.425H107.669V133.543H105.527V132.381H107.669V131.499H105.688L108.894 125.92H107.704L105.009 130.603L102.3 125.92H101.11L104.33 131.499H102.349V132.381H104.491V133.543H102.349V134.425Z" fill="white"/>
  <circle cx="120" cy="147" r="8.5" fill="#14528C" stroke="white"/>
  <path d="M117.349 150.425H119.491V152H120.527V150.425H122.669V149.543H120.527V148.381H122.669V147.499H120.688L123.894 141.92H122.704L120.009 146.603L117.3 141.92H116.11L119.33 147.499H117.349V148.381H119.491V149.543H117.349V150.425Z" fill="white"/>
  <circle cx="115" cy="153" r="8.5" fill="#14528C" stroke="white"/>
  <path d="M112.349 156.425H114.491V158H115.527V156.425H117.669V155.543H115.527V154.381H117.669V153.499H115.688L118.894 147.92H117.704L115.009 152.603L112.3 147.92H111.11L114.33 153.499H112.349V154.381H114.491V155.543H112.349V156.425Z" fill="white"/>
  <circle cx="109" cy="162" r="8.5" fill="#14528C" stroke="white"/>
  <path d="M106.349 165.425H108.491V167H109.527V165.425H111.669V164.543H109.527V163.381H111.669V162.499H109.688L112.894 156.92H111.704L109.009 161.603L106.3 156.92H105.11L108.33 162.499H106.349V163.381H108.491V164.543H106.349V165.425Z" fill="white"/>
  <circle cx="107" cy="165" r="8.5" fill="#14528C" stroke="white"/>
  <path d="M104.349 168.425H106.491V170H107.527V168.425H109.669V167.543H107.527V166.381H109.669V165.499H107.688L110.894 159.92H109.704L107.009 164.603L104.3 159.92H103.11L106.33 165.499H104.349V166.381H106.491V167.543H104.349V168.425Z" fill="white"/>
  <circle cx="100" cy="170" r="8.5" fill="#14528C" stroke="white"/>
  <path d="M97.3494 173.425H99.4914V175H100.527V173.425H102.669V172.543H100.527V171.381H102.669V170.499H100.688L103.894 164.92H102.704L100.009 169.603L97.3004 164.92H96.1104L99.3304 170.499H97.3494V171.381H99.4914V172.543H97.3494V173.425Z" fill="white"/>
  <path d="M192.5 106L200.246 129.839H225.311L205.033 144.572L212.779 168.411L192.5 153.678L172.221 168.411L179.967 144.572L159.689 129.839H184.754L192.5 106Z" fill="#FFC700"/>
  <path d="M161 247.97L182.133 219.153L220.172 229.527L246.3 194.177L277.039 196.483L306.626 149.99" stroke="#00BF36" stroke-width="6"/>
  <path d="M295.483 144.611L317 140L311.236 159.212L295.483 144.611Z" fill="#00BF36"/>
  <circle cx="231" cy="50" r="18.5" stroke="#FF8A00" stroke-width="3"/>
  <circle cx="292" cy="20" r="9.5" stroke="#FF8A00" stroke-width="3"/>
  <circle cx="276" cy="50" r="9.5" stroke="#FF8A00" stroke-width="3"/>
  <circle cx="258" cy="15" r="13.5" stroke="#FF8A00" stroke-width="3"/>
  </svg>
  