<svg  viewBox="0 0 40 41" fill="none" xmlns="http://www.w3.org/2000/svg">
<path d="M18.9393 0.93934C19.5251 0.353553 20.4749 0.353553 21.0607 0.93934L26.0607 5.93934C26.6464 6.52513 26.6464 7.47487 26.0607 8.06066C25.4749 8.64645 24.5251 8.64645 23.9393 8.06066L21.5 5.62132V19H34.8787L32.4393 16.5607C31.8536 15.9749 31.8536 15.0251 32.4393 14.4393C33.0251 13.8536 33.9749 13.8536 34.5607 14.4393L39.5607 19.4393C40.1464 20.0251 40.1464 20.9749 39.5607 21.5607L34.5607 26.5607C33.9749 27.1464 33.0251 27.1464 32.4393 26.5607C31.8536 25.9749 31.8536 25.0251 32.4393 24.4393L34.8787 22H21.5V35.3787L23.9393 32.9393C24.5251 32.3536 25.4749 32.3536 26.0607 32.9393C26.6464 33.5251 26.6464 34.4749 26.0607 35.0607L21.0607 40.0607C20.4749 40.6464 19.5251 40.6464 18.9393 40.0607L13.9393 35.0607C13.3536 34.4749 13.3536 33.5251 13.9393 32.9393C14.5251 32.3536 15.4749 32.3536 16.0607 32.9393L18.5 35.3787V22H5.12132L7.56066 24.4393C8.14645 25.0251 8.14645 25.9749 7.56066 26.5607C6.97487 27.1464 6.02513 27.1464 5.43934 26.5607L0.43934 21.5607C-0.146447 20.9749 -0.146447 20.0251 0.43934 19.4393L5.43934 14.4393C6.02513 13.8536 6.97487 13.8536 7.56066 14.4393C8.14645 15.0251 8.14645 15.9749 7.56066 16.5607L5.12132 19H18.5V5.62132L16.0607 8.06066C15.4749 8.64645 14.5251 8.64645 13.9393 8.06066C13.3536 7.47487 13.3536 6.52513 13.9393 5.93934L18.9393 0.93934Z" fill="currentColor"/>
</svg>
